<svg width="24" height="24" viewBox="0 0 24 24" fill="none" xmlns="http://www.w3.org/2000/svg">
    <path fill-rule="evenodd" clip-rule="evenodd" d="M4.92894 19.5712C2.77934 17.4216 2.77934 13.9426 4.92894 11.793L12.3536 4.36842C13.9163 2.80571 16.4477 2.80571 18.0104 4.36842C19.5731 5.93113 19.5731 8.46257 18.0104 10.0253L12 16.0357C11.0242 17.0115 9.44029 17.0115 8.46448 16.0357C7.48867 15.0599 7.48867 13.476 8.46448 12.5001L13.7678 7.19685L15.182 8.61106L9.81505 13.978C9.42614 14.3669 10.1332 15.074 10.5222 14.6851L16.5962 8.61106C17.374 7.83324 17.374 6.56045 16.5962 5.78263C15.8184 5.00482 14.5456 5.00482 13.7678 5.78263L6.34316 13.2073C4.97844 14.572 4.97844 16.7923 6.34316 18.157C7.70787 19.5217 9.92819 19.5217 11.2929 18.157L18.0104 11.4395L19.4246 12.8537L12.7071 19.5712C10.5575 21.7208 7.07855 21.7208 4.92894 19.5712Z" fill="#929292"/>
</svg>
