<svg width="18" height="11" viewBox="0 0 18 11" fill="none" xmlns="http://www.w3.org/2000/svg">
    <path d="M4.61185 5.60762L7.96454 8.77284L16.9858 0.165926C17.2255 -0.0628186 17.6053 -0.053892 17.8341 0.185863C18.0628 0.425619 18.0539 0.805413 17.8141 1.03416L8.38089 10.0342C8.14995 10.2545 7.78692 10.2554 7.55482 10.0363L3.78807 6.4802C3.54711 6.25271 3.53619 5.87297 3.76367 5.63202C3.99115 5.39106 4.37089 5.38014 4.61185 5.60762ZM0.188068 6.4802C-0.0528867 6.25271 -0.0638091 5.87297 0.163672 5.63202C0.391153 5.39106 0.770895 5.38014 1.01185 5.60762L4.77861 9.16375C5.01956 9.39123 5.03048 9.77098 4.803 10.0119C4.57552 10.2529 4.19578 10.2638 3.95483 10.0363L0.188068 6.4802ZM8.67459 6.31928C8.43484 6.54803 8.05505 6.5391 7.8263 6.29934C7.59756 6.05959 7.60648 5.67979 7.84624 5.45105L13.3858 0.165926C13.6255 -0.0628186 14.0053 -0.053892 14.2341 0.185863C14.4628 0.425619 14.4539 0.805413 14.2141 1.03416L8.67459 6.31928Z" fill="#929292"/>
</svg>
